<svg width="18" height="20" viewBox="0 0 18 20" fill="none" xmlns="http://www.w3.org/2000/svg">
<path fill-rule="evenodd" clip-rule="evenodd" d="M16.6913 6.84184C15.7015 5.60848 14.3129 4.89496 13.002 4.89496C11.2678 4.89496 10.535 5.71888 9.33192 5.71888C8.09184 5.71888 7.14888 4.89616 5.64888 4.89616C4.17552 4.89616 2.60904 5.79112 1.61592 7.32064C0.218404 9.47152 0.455044 13.5184 2.72112 16.967C3.5316 18.2001 4.614 19.5868 6.02928 19.6C7.28712 19.6115 7.64304 18.7977 9.34968 18.7881C11.0566 18.7787 11.3794 19.6089 12.637 19.5971C14.0522 19.5837 15.1942 18.0482 16.0042 16.8148C16.5847 15.9314 16.801 15.485 17.2519 14.4863C13.9757 13.2484 13.4489 8.61904 16.6913 6.84184Z" fill="#111827"/>
<path fill-rule="evenodd" clip-rule="evenodd" d="M11.6866 3.51711C12.3166 2.70879 12.7952 1.56687 12.6214 0.399994C11.5923 0.471034 10.3884 1.12551 9.68572 1.97919C9.0478 2.75391 8.521 3.90279 8.72596 5.01951C9.8494 5.05431 11.012 4.38303 11.6866 3.51711Z" fill="#111827"/>
</svg>
