<svg width="19" height="20" viewBox="0 0 19 20" fill="none" xmlns="http://www.w3.org/2000/svg">
<path d="M5.40579 8.57644C5.13301 8.8489 5.13301 9.29064 5.40579 9.5631L5.77832 9.93519C7.90278 12.0572 11.3472 12.0572 13.4717 9.93519L13.8442 9.5631C14.117 9.29064 14.117 8.8489 13.8442 8.57644C13.5714 8.30398 13.1292 8.30398 12.8564 8.57644L12.4839 8.94853C10.905 10.5256 8.34504 10.5256 6.76614 8.94853L6.39361 8.57644C6.12083 8.30398 5.67857 8.30398 5.40579 8.57644Z" fill="#5E5F60"/>
<path fill-rule="evenodd" clip-rule="evenodd" d="M9.625 0C7.36173 0 5.49543 1.69763 5.23282 3.88758C4.86615 3.95773 4.52835 4.05913 4.20433 4.2075C3.26794 4.63625 2.47522 5.32567 1.92122 6.19308C1.58591 6.71809 1.38694 7.30539 1.23064 8.02184C1.07751 8.72377 0.955826 9.59887 0.801021 10.7122L0.792447 10.7738C0.593231 12.2065 0.437496 13.3264 0.390195 14.2285C0.342169 15.1445 0.400267 15.9077 0.676126 16.6085C1.127 17.7538 1.9595 18.7088 3.03324 19.3124C3.69019 19.6817 4.4391 19.8442 5.35399 19.9227C6.25507 20 7.3871 20 8.83518 20H10.4148C11.8629 20 12.9949 20 13.896 19.9227C14.8109 19.8442 15.5598 19.6817 16.2168 19.3124C17.2905 18.7088 18.123 17.7538 18.5739 16.6085C18.8497 15.9077 18.9078 15.1445 18.8598 14.2285C18.8125 13.3264 18.6568 12.2064 18.4575 10.7737L18.449 10.7122C18.2942 9.59885 18.1725 8.72376 18.0194 8.02184C17.8631 7.30539 17.6641 6.71809 17.3288 6.19308C16.7748 5.32567 15.9821 4.63625 15.0457 4.2075C14.7216 4.05913 14.3839 3.95773 14.0172 3.88758C13.7546 1.69763 11.8883 0 9.625 0ZM8.82649 3.72093C7.98636 3.72092 7.27919 3.72092 6.67371 3.7445C6.98041 2.39929 8.18533 1.39535 9.625 1.39535C11.0647 1.39535 12.2696 2.39929 12.5763 3.7445C11.9708 3.72092 11.2636 3.72092 10.4235 3.72093H8.82649ZM5.97271 5.18937C6.6603 5.11719 7.55054 5.11628 8.86867 5.11628H10.3813C11.6995 5.11628 12.5897 5.11719 13.2773 5.18937C13.7911 5.24331 14.1539 5.33413 14.4635 5.47591C15.1556 5.79282 15.7415 6.30239 16.151 6.94352C16.3624 7.27447 16.5159 7.6839 16.6544 8.31892C16.7948 8.96247 16.9096 9.78464 17.0692 10.9327C17.274 12.4055 17.4209 13.4663 17.4647 14.3015C17.5082 15.1299 17.4445 15.6642 17.2738 16.0979C16.9405 16.9444 16.3252 17.6503 15.5316 18.0964C15.125 18.325 14.6039 18.4615 13.7765 18.5325C12.9422 18.604 11.87 18.6047 10.3813 18.6047H8.86868C7.37995 18.6047 6.30784 18.604 5.47354 18.5325C4.64612 18.4615 4.12504 18.325 3.71844 18.0964C2.9248 17.6503 2.30948 16.9444 1.97622 16.0979C1.80548 15.6642 1.74184 15.1299 1.78527 14.3015C1.82907 13.4663 1.97596 12.4055 2.18076 10.9327C2.3404 9.78464 2.4552 8.96247 2.5956 8.31892C2.73414 7.6839 2.8876 7.27447 3.09897 6.94352C3.50845 6.30239 4.09437 5.79282 4.78648 5.47591C5.09612 5.33413 5.45891 5.24331 5.97271 5.18937Z" fill="#5E5F60"/>
</svg>
