<svg width="103" height="103" viewBox="0 0 103 103" fill="none" xmlns="http://www.w3.org/2000/svg">
<circle cx="51.5006" cy="51.5001" r="51.5006" fill="#FF7029"/>
<path d="M61.6442 78.7614H41.3563C26.7744 78.7614 26.7744 71.0267 26.7744 64.1795V61.6435C26.7744 55.9883 26.7744 49.5976 38.8203 49.5976C41.8382 49.5976 42.954 50.333 44.5263 51.4996C44.6024 51.5757 44.7038 51.6264 44.7799 51.7278L47.3666 54.4667C49.5476 56.7744 53.5037 56.7744 55.6846 54.4667L58.2713 51.7278C58.3474 51.6518 58.4235 51.5757 58.5249 51.4996C60.0973 50.3077 61.2131 49.5976 64.2309 49.5976C76.2768 49.5976 76.2768 55.9883 76.2768 61.6435V64.1795C76.2261 73.867 71.3317 78.7614 61.6442 78.7614ZM38.8203 53.4016C30.5784 53.4016 30.5784 55.9883 30.5784 61.6435V64.1795C30.5784 71.1281 30.5784 74.9575 41.3563 74.9575H61.6442C69.2014 74.9575 72.4221 71.7368 72.4221 64.1795V61.6435C72.4221 55.9883 72.4221 53.4016 64.1802 53.4016C62.3543 53.4016 61.9739 53.6298 60.8834 54.4413L58.4235 57.0534C56.5976 58.9808 54.1377 60.0459 51.5003 60.0459C48.8628 60.0459 46.4029 58.9808 44.577 57.0534L42.1171 54.4413C41.0267 53.6298 40.6463 53.4016 38.8203 53.4016Z" fill="white"/>
<path d="M69.252 53.4016C68.2122 53.4016 67.35 52.5394 67.35 51.4996V36.2837C67.35 30.6284 67.35 28.0417 59.108 28.0417H43.8921C35.6502 28.0417 35.6502 30.6284 35.6502 36.2837V51.4996C35.6502 52.5394 34.7879 53.4016 33.7482 53.4016C32.7084 53.4016 31.8462 52.5394 31.8462 51.4996V36.2837C31.8462 30.6284 31.8462 24.2378 43.8921 24.2378H59.108C71.154 24.2378 71.154 30.6284 71.154 36.2837V51.4996C71.154 52.5394 70.2917 53.4016 69.252 53.4016Z" fill="white"/>
<path d="M56.2672 46.3769H47.8224C46.7826 46.3769 45.9204 45.5146 45.9204 44.4749C45.9204 43.4351 46.7826 42.5729 47.8224 42.5729H56.2672C57.307 42.5729 58.1692 43.4351 58.1692 44.4749C58.1692 45.5146 57.3323 46.3769 56.2672 46.3769Z" fill="white"/>
<path d="M58.3973 38.7689H45.7174C44.6777 38.7689 43.8154 37.9067 43.8154 36.8669C43.8154 35.8272 44.6777 34.9649 45.7174 34.9649H58.3973C59.437 34.9649 60.2993 35.8272 60.2993 36.8669C60.2993 37.9067 59.4624 38.7689 58.3973 38.7689Z" fill="white"/>
</svg>
