<svg width="141" height="83" viewBox="0 0 141 83" fill="none" xmlns="http://www.w3.org/2000/svg">
<path d="M24.07 72.432C22.5513 72.432 21.1347 72.2167 19.82 71.786C18.528 71.3553 17.3947 70.7547 16.42 69.984C15.468 69.2133 14.72 68.3067 14.176 67.264C13.632 66.244 13.36 65.1333 13.36 63.932C13.36 63.5013 13.394 62.9573 13.462 62.3C13.53 61.6427 13.6207 60.8833 13.734 60.022C13.8473 59.1607 13.9833 58.2313 14.142 57.234L19.276 57.914C19.0493 59.3193 18.868 60.5547 18.732 61.62C18.6187 62.6627 18.562 63.4107 18.562 63.864C18.562 64.6573 18.7887 65.36 19.242 65.972C19.6953 66.6067 20.33 67.094 21.146 67.434C21.9847 67.7967 22.9593 67.978 24.07 67.978H33.692C35.0973 67.978 36.1287 67.638 36.786 66.958C37.4433 66.278 37.772 65.292 37.772 64V62.674H42.974V63.966C42.974 65.6207 42.5887 67.0827 41.818 68.352C41.0473 69.6213 39.9707 70.6187 38.588 71.344C37.2053 72.0693 35.5733 72.432 33.692 72.432H24.07ZM36.446 64C35.3127 64 34.236 63.8753 33.216 63.626C32.196 63.354 31.244 62.912 30.36 62.3L33.318 58.628C33.6807 58.8773 33.998 59.07 34.27 59.206C34.5647 59.342 34.882 59.4327 35.222 59.478C35.562 59.5233 35.97 59.546 36.446 59.546H44.334V64H36.446ZM44.334 64V59.546C44.4473 59.546 44.5493 59.6027 44.64 59.716C44.7307 59.8067 44.7987 59.954 44.844 60.158C44.8893 60.3393 44.9233 60.566 44.946 60.838C44.9913 61.11 45.014 61.416 45.014 61.756C45.014 62.096 44.9913 62.4133 44.946 62.708C44.9233 62.98 44.8893 63.218 44.844 63.422C44.7987 63.6033 44.7307 63.7507 44.64 63.864C44.5493 63.9547 44.4473 64 44.334 64ZM22.37 79.708V75.56H27.334V79.708H22.37ZM29.068 79.708V75.56H34.032V79.708H29.068ZM45.0198 64V59.546H53.5198V64H45.0198ZM53.5198 64V59.546C53.6332 59.546 53.7352 59.6027 53.8258 59.716C53.9165 59.8067 53.9845 59.954 54.0298 60.158C54.0752 60.3393 54.1092 60.566 54.1318 60.838C54.1772 61.11 54.1998 61.416 54.1998 61.756C54.1998 62.096 54.1772 62.4133 54.1318 62.708C54.1092 62.98 54.0752 63.218 54.0298 63.422C53.9845 63.6033 53.9165 63.7507 53.8258 63.864C53.7352 63.9547 53.6332 64 53.5198 64ZM45.0198 64C44.9065 64 44.8045 63.9547 44.7138 63.864C44.6232 63.7507 44.5552 63.6033 44.5098 63.422C44.4645 63.218 44.4305 62.98 44.4078 62.708C44.3625 62.4133 44.3398 62.096 44.3398 61.756C44.3398 61.3027 44.3625 60.9173 44.4078 60.6C44.4532 60.26 44.5325 59.9993 44.6458 59.818C44.7365 59.6367 44.8612 59.546 45.0198 59.546V64ZM54.1998 64V59.546H62.6998V64H54.1998ZM62.6998 64V59.546C62.8132 59.546 62.9152 59.6027 63.0058 59.716C63.0965 59.8067 63.1645 59.954 63.2098 60.158C63.2552 60.3393 63.2892 60.566 63.3118 60.838C63.3572 61.11 63.3798 61.416 63.3798 61.756C63.3798 62.096 63.3572 62.4133 63.3118 62.708C63.2892 62.98 63.2552 63.218 63.2098 63.422C63.1645 63.6033 63.0965 63.7507 63.0058 63.864C62.9152 63.9547 62.8132 64 62.6998 64ZM54.1998 64C54.0865 64 53.9845 63.9547 53.8938 63.864C53.8032 63.7507 53.7352 63.6033 53.6898 63.422C53.6445 63.218 53.6105 62.98 53.5878 62.708C53.5425 62.4133 53.5198 62.096 53.5198 61.756C53.5198 61.3027 53.5425 60.9173 53.5878 60.6C53.6332 60.26 53.7125 59.9993 53.8258 59.818C53.9165 59.6367 54.0412 59.546 54.1998 59.546V64ZM74.5658 64V59.546H78.9858V64H74.5658ZM78.9858 64V59.546C79.1218 59.546 79.2238 59.6027 79.2918 59.716C79.3825 59.8067 79.4505 59.954 79.4958 60.158C79.5638 60.3393 79.6092 60.566 79.6318 60.838C79.6545 61.11 79.6658 61.416 79.6658 61.756C79.6658 62.096 79.6545 62.4133 79.6318 62.708C79.6092 62.98 79.5638 63.218 79.4958 63.422C79.4505 63.6033 79.3825 63.7507 79.2918 63.864C79.2238 63.9547 79.1218 64 78.9858 64ZM63.3798 64C63.2438 64 63.1418 63.9547 63.0738 63.864C62.9832 63.7507 62.9152 63.6033 62.8698 63.422C62.8245 63.218 62.7905 62.98 62.7678 62.708C62.7225 62.4133 62.6998 62.096 62.6998 61.756C62.6998 61.3027 62.7225 60.9173 62.7678 60.6C62.8132 60.26 62.8925 59.9993 63.0058 59.818C63.0965 59.6367 63.2212 59.546 63.3798 59.546V64ZM63.3798 64V59.546H72.5258L69.3638 62.164V46.898H74.5658V64H63.3798ZM66.1678 43.736V39.588H71.1318V43.736H66.1678ZM72.8658 43.736V39.588H77.8298V43.736H72.8658ZM88.6413 64V59.546H92.1773V64H88.6413ZM79.6653 64C79.552 64 79.45 63.9547 79.3593 63.864C79.2686 63.7507 79.2006 63.6033 79.1553 63.422C79.11 63.218 79.076 62.98 79.0533 62.708C79.008 62.4133 78.9853 62.096 78.9853 61.756C78.9853 61.3027 79.008 60.9173 79.0533 60.6C79.0986 60.26 79.178 59.9993 79.2913 59.818C79.382 59.6367 79.5066 59.546 79.6653 59.546V64ZM83.4393 64V40.098H88.6413V64H83.4393ZM79.6653 64V59.546H83.4393V64H79.6653ZM92.1773 64V59.546C92.3133 59.546 92.4153 59.6027 92.4833 59.716C92.574 59.8067 92.642 59.954 92.6873 60.158C92.7553 60.3393 92.8006 60.566 92.8233 60.838C92.846 61.11 92.8573 61.416 92.8573 61.756C92.8573 62.096 92.846 62.4133 92.8233 62.708C92.8006 62.98 92.7553 63.218 92.6873 63.422C92.642 63.6033 92.574 63.7507 92.4833 63.864C92.4153 63.9547 92.3133 64 92.1773 64ZM92.8629 64V59.546H107.347L105.545 60.94V55.432C105.545 54.1173 105.137 53.12 104.321 52.44C103.505 51.7373 102.19 51.386 100.377 51.386C99.8782 51.386 99.2096 51.42 98.3709 51.488C97.5322 51.556 96.6142 51.658 95.6169 51.794L95.1409 47.714C96.0929 47.4873 97.0562 47.2947 98.0309 47.136C99.0282 46.9773 99.9916 46.898 100.921 46.898C102.825 46.898 104.514 47.2493 105.987 47.952C107.46 48.632 108.616 49.6067 109.455 50.876C110.316 52.1227 110.747 53.6413 110.747 55.432V64H92.8629ZM92.8629 64C92.7496 64 92.6476 63.9547 92.5569 63.864C92.4662 63.7507 92.3982 63.6033 92.3529 63.422C92.3076 63.218 92.2736 62.98 92.2509 62.708C92.2056 62.4133 92.1829 62.096 92.1829 61.756C92.1829 61.3027 92.2056 60.9173 92.2509 60.6C92.2962 60.26 92.3756 59.9993 92.4889 59.818C92.5796 59.6367 92.7042 59.546 92.8629 59.546V64ZM115.063 72.772C114.813 72.772 114.507 72.7493 114.145 72.704C113.782 72.6813 113.408 72.6587 113.023 72.636L113.193 68.25C113.555 68.25 113.907 68.2613 114.247 68.284C114.587 68.3067 114.836 68.318 114.995 68.318C115.833 68.318 116.491 67.9893 116.967 67.332C117.465 66.6747 117.715 65.7227 117.715 64.476V46.898H122.917V64.476C122.917 66.0853 122.588 67.5133 121.931 68.76C121.273 70.0293 120.355 71.0153 119.177 71.718C117.998 72.4207 116.627 72.772 115.063 72.772Z" fill="white"/>
<path d="M10.708 30.9043C10.708 31.0482 10.5309 31.2695 10.1768 31.5684C9.82259 31.8561 9.5127 32 9.24707 32H1.70996C3.22624 25.8906 4.30534 18.7796 4.94727 10.667C4.94727 10.5342 5.12435 10.3294 5.47852 10.0527C5.83268 9.76497 6.13704 9.61556 6.3916 9.60449C9.71191 9.3278 12.2464 9.18945 13.9951 9.18945C12.4014 16.0736 11.3057 23.3118 10.708 30.9043ZM22.7607 24.5293L22.5283 27.8662C22.5283 28.4749 22.639 28.9619 22.8604 29.3271C23.0817 29.6924 23.4912 29.9193 24.0889 30.0078C23.9782 30.7051 23.7956 31.2751 23.541 31.7178C21.5599 32.1826 19.8721 32.415 18.4775 32.415C17.0941 32.415 16.0205 32.2269 15.2568 31.8506C14.5042 31.4632 14.1279 30.8656 14.1279 30.0576C14.1279 29.2497 14.2497 28.1484 14.4932 26.7539C14.7477 25.3483 14.875 24.3522 14.875 23.7656C14.875 23.168 14.7422 22.6699 14.4766 22.2715C14.2109 21.873 13.8512 21.6517 13.3975 21.6074C13.4528 21.1094 13.641 20.6667 13.9619 20.2793C14.8916 19.7923 15.6165 19.0342 16.1367 18.0049C16.6569 16.9756 16.917 15.8633 16.917 14.668C16.917 12.875 16.3802 11.4196 15.3066 10.3018C15.3066 10.1357 15.4837 9.90332 15.8379 9.60449C16.1921 9.30566 16.4964 9.15625 16.751 9.15625C18.7321 9.15625 20.4476 9.56576 21.8975 10.3848C22.6279 10.8053 23.209 11.3809 23.6406 12.1113C24.0723 12.8418 24.2881 13.6829 24.2881 14.6348C24.2881 16.1953 23.5742 17.5234 22.1465 18.6191C20.7188 19.7148 18.8096 20.3457 16.4189 20.5117L17.9131 20.6445C19.374 20.7884 20.5472 21.1758 21.4326 21.8066C22.318 22.4264 22.7607 23.334 22.7607 24.5293ZM41.2974 15.498C42.8026 16.0182 43.9426 16.7487 44.7173 17.6895C45.5031 18.6191 45.896 19.6152 45.896 20.6777C45.896 22.1276 45.2707 23.3561 44.02 24.3633C42.7694 25.3704 41.065 25.874 38.9068 25.874C38.2316 25.874 37.4901 25.7633 36.6821 25.542C37.8553 24.8115 38.6467 23.8597 39.0562 22.6865C39.4103 21.6683 39.5874 20.473 39.5874 19.1006C39.5874 18.835 39.5598 18.0215 39.5044 16.6602C39.4933 16.5163 39.7147 16.2894 40.1685 15.9795C40.6333 15.6696 41.0096 15.5091 41.2974 15.498ZM38.6079 15.2324C37.2355 16.1621 36.1454 17.3851 35.3374 18.9014C34.5405 20.4176 34.1421 22.0391 34.1421 23.7656C34.1421 25.4922 34.8062 26.8978 36.1343 27.9824C37.4624 29.0671 39.3993 29.6094 41.9448 29.6094C42.6421 29.6094 43.3892 29.5485 44.1861 29.4268C43.6659 30.2458 42.6642 30.932 41.1812 31.4854C39.6981 32.0277 38.1431 32.2988 36.5161 32.2988C34.8892 32.2988 33.5002 32.1383 32.3491 31.8174C31.1981 31.4854 30.1688 30.9984 29.2612 30.3564C28.3648 29.7145 27.6564 28.8789 27.1362 27.8496C26.6161 26.8092 26.356 25.6693 26.356 24.4297C26.356 23.179 26.5497 22.0501 26.937 21.043C27.3244 20.0358 27.8557 19.1725 28.5308 18.4531C29.2059 17.7337 29.9917 17.1139 30.8882 16.5938C32.6701 15.5866 34.7232 15.083 37.0474 15.083C37.6229 15.083 38.1431 15.1328 38.6079 15.2324ZM60.5811 32.166C59.9392 31.5462 59.6182 30.7493 59.6182 29.7754C59.6182 28.8014 59.8617 26.9421 60.3487 24.1973C60.8467 21.4525 61.0957 19.7646 61.0957 19.1338C61.0957 18.4919 60.9408 18.0326 60.6309 17.7559C60.3321 17.4681 59.9392 17.3242 59.4522 17.3242C59.5518 16.6602 59.7399 16.1621 60.0166 15.8301C60.4261 15.6309 61.0681 15.4482 61.9424 15.2822C62.8278 15.1162 63.6468 15.0332 64.3995 15.0332C65.8715 15.0332 66.9727 15.3708 67.7032 16.0459C68.4447 16.721 68.8155 17.7891 68.8155 19.25C68.8155 20.069 68.6384 21.5078 68.2842 23.5664C67.9301 25.625 67.753 26.8867 67.753 27.3516C67.753 27.8164 67.7696 28.165 67.8028 28.3975C67.847 28.6299 67.8802 28.8125 67.9024 28.9453C67.9356 29.0781 68.0131 29.2331 68.1348 29.4102C68.2565 29.5762 68.334 29.6813 68.3672 29.7256C68.4004 29.7588 68.5111 29.8695 68.6993 30.0576C68.8874 30.2347 68.9981 30.3398 69.0313 30.373C69.0313 30.528 68.8708 30.7881 68.5498 31.1533C68.2289 31.5075 67.9356 31.7399 67.67 31.8506C66.2533 32.0609 63.8903 32.166 60.5811 32.166ZM56.1153 30.8711C56.1153 31.026 55.9382 31.2529 55.584 31.5518C55.2299 31.8506 54.92 32 54.6543 32H47.8145C48.3015 29.9193 48.8604 26.444 49.4912 21.5742C50.1332 16.7044 50.5759 12.8861 50.8194 10.1191C50.8194 9.97526 50.9965 9.75944 51.3506 9.47168C51.7048 9.17285 52.0092 9.02344 52.2637 9.02344H59.253C58.6664 11.4583 58.0577 14.9723 57.4268 19.5654C56.7959 24.1475 56.3588 27.916 56.1153 30.8711ZM80.6119 30.8711C80.6119 31.026 80.4348 31.2529 80.0806 31.5518C79.7265 31.8506 79.4166 32 79.1509 32H72.3111C72.7981 29.9193 73.357 26.444 73.9879 21.5742C74.6298 16.7044 75.0725 12.8861 75.316 10.1191C75.316 9.97526 75.4931 9.75944 75.8472 9.47168C76.2014 9.17285 76.5058 9.02344 76.7603 9.02344H83.7496C83.163 11.4583 82.5543 14.9723 81.9234 19.5654C81.2925 24.1475 80.8554 27.916 80.6119 30.8711ZM105.341 31.3359C103.183 31.8008 100.864 32.0332 98.3848 32.0332C97.8204 31.2695 97.5382 30.4671 97.5382 29.626C97.5382 28.7848 97.7872 26.6543 98.2852 23.2344C98.7833 19.8034 99.0378 17.5234 99.0489 16.3945C99.0489 16.2507 99.2315 16.0348 99.5968 15.7471C99.962 15.4593 100.266 15.3154 100.51 15.3154C102.878 15.3154 105.108 15.6309 107.2 16.2617C107.156 16.6159 106.863 18.027 106.32 20.4951C105.778 22.9521 105.507 24.9277 105.507 26.4219C105.507 27.9049 105.905 29.0449 106.702 29.8418C106.702 29.9967 106.547 30.2568 106.237 30.6221C105.927 30.9762 105.629 31.2142 105.341 31.3359ZM97.6544 15.083C96.3373 16.057 95.3357 17.3796 94.6495 19.0508C93.9744 20.722 93.6368 22.3656 93.6368 23.9814C93.6368 25.5863 93.8139 27.0306 94.168 28.3145C94.5333 29.5872 95.0203 30.4395 95.629 30.8711C95.629 31.0371 95.4519 31.2695 95.0977 31.5684C94.7436 31.8561 94.4392 32 94.1846 32C91.6501 32 89.6137 31.3636 88.0753 30.0908C86.5479 28.818 85.7843 27.0804 85.7843 24.8779C85.7843 22.1442 86.8191 19.8477 88.8887 17.9883C89.8848 17.0918 91.1355 16.3835 92.6407 15.8633C94.157 15.3431 95.8282 15.083 97.6544 15.083ZM123.263 30.9873C120.994 31.7178 118.731 32.083 116.473 32.083C112.124 32.083 109.949 30.3509 109.949 26.8867C109.949 26.1341 110.109 24.6344 110.43 22.3877C110.751 20.1299 110.912 18.5749 110.912 17.7227C110.912 16.8594 110.873 16.2008 110.796 15.7471C112.312 15.0719 113.645 14.3083 114.796 13.4561C115.948 12.6038 117.065 11.5579 118.15 10.3184C118.703 10.1523 119.423 10.0693 120.308 10.0693C119.567 12.6813 118.975 15.3652 118.532 18.1211C118.1 20.877 117.884 22.9134 117.884 24.2305C117.884 25.5365 117.978 26.4827 118.167 27.0693C118.355 27.6449 118.659 28.0931 119.08 28.4141C119.821 28.9785 120.994 29.2607 122.599 29.2607C122.987 29.2607 123.396 29.2441 123.828 29.2109C123.728 29.9414 123.54 30.5335 123.263 30.9873ZM120.358 19.4492C120.458 17.9108 120.707 16.4831 121.105 15.166C122.19 15.6198 123.402 15.9408 124.741 16.1289C124.829 16.2949 124.912 16.5716 124.99 16.959C125.067 17.3353 125.106 17.6341 125.106 17.8555C123.568 18.276 121.985 18.8073 120.358 19.4492ZM125.879 32C126.842 27.9271 127.578 22.7917 128.087 16.5938C128.087 16.4499 128.27 16.234 128.635 15.9463C129 15.6585 129.304 15.5146 129.548 15.5146H136.504C135.541 19.654 134.805 24.7839 134.296 30.9043C134.296 31.0482 134.119 31.2695 133.765 31.5684C133.411 31.8561 133.106 32 132.852 32H125.879ZM135.574 13.2734H128.635C128.845 12.4212 128.984 11.5856 129.05 10.7666C129.05 10.6117 129.227 10.3903 129.581 10.1025C129.935 9.80371 130.24 9.6543 130.494 9.6543H137.467C137.323 10.1745 137.174 11.0156 137.019 12.1777C137.019 12.3327 136.842 12.554 136.487 12.8418C136.144 13.1296 135.84 13.2734 135.574 13.2734Z" fill="white"/>
</svg>
