<svg width="20" height="20" viewBox="0 0 20 20" fill="none" xmlns="http://www.w3.org/2000/svg">
<path opacity="0.4" d="M5 8.33333V6.66666C5 3.90833 5.83333 1.66666 10 1.66666C14.1667 1.66666 15 3.90833 15 6.66666V8.33333" stroke="#9CA3AF" stroke-width="1.5" stroke-linecap="round" stroke-linejoin="round"/>
<path opacity="0.4" d="M9.99996 15.4167C11.1506 15.4167 12.0833 14.4839 12.0833 13.3333C12.0833 12.1827 11.1506 11.25 9.99996 11.25C8.84937 11.25 7.91663 12.1827 7.91663 13.3333C7.91663 14.4839 8.84937 15.4167 9.99996 15.4167Z" stroke="#9CA3AF" stroke-width="1.5" stroke-linecap="round" stroke-linejoin="round"/>
<path d="M14.1666 18.3333H5.83329C2.49996 18.3333 1.66663 17.5 1.66663 14.1667V12.5C1.66663 9.16667 2.49996 8.33334 5.83329 8.33334H14.1666C17.5 8.33334 18.3333 9.16667 18.3333 12.5V14.1667C18.3333 17.5 17.5 18.3333 14.1666 18.3333Z" stroke="#9CA3AF" stroke-width="1.5" stroke-linecap="round" stroke-linejoin="round"/>
</svg>
