<svg width="13" height="13" viewBox="0 0 13 13" fill="none" xmlns="http://www.w3.org/2000/svg">
<path d="M6.3295 0.8848C6.41922 0.697117 6.53137 0.579815 6.71081 0.509434C6.89025 0.462513 7.04726 0.462513 7.22669 0.509434C7.40613 0.579815 7.54071 0.697117 7.63043 0.8848L9.08838 3.98157L12.3631 4.47424C12.5426 4.52116 12.6996 4.61501 12.8117 4.75577C12.9239 4.91999 12.9688 5.08421 12.9688 5.2719C12.9688 5.45958 12.9015 5.6238 12.7669 5.76457L10.3893 8.18099L10.9501 11.6062C10.9725 11.7939 10.9276 11.9816 10.8379 12.1458C10.7482 12.31 10.6136 12.4039 10.4342 12.4508C10.2547 12.4977 10.0753 12.4742 9.91828 12.3804L6.97997 10.7851L4.04165 12.3804C3.86221 12.4742 3.7052 12.4977 3.52576 12.4508C3.34632 12.4039 3.18931 12.31 3.09959 12.1458C3.00987 11.9816 2.96501 11.7939 3.00987 11.6062L3.57062 8.18099L1.19305 5.76457C1.05847 5.6238 0.96875 5.45958 0.96875 5.2719C0.96875 5.08421 1.01361 4.91999 1.12576 4.75577C1.23791 4.61501 1.39492 4.52116 1.59679 4.47424L4.87155 3.98157L6.3295 0.8848Z" fill="#FFA800"/>
</svg>
