<svg width="26" height="26" viewBox="0 0 26 26" fill="none" xmlns="http://www.w3.org/2000/svg">
<g clip-path="url(#clip0_0_1)">
<path d="M13 26C5.8203 26 0 20.1797 0 13C0 5.8203 5.8203 0 13 0C20.1797 0 26 5.8203 26 13C26 20.1797 20.1797 26 13 26Z" fill="#101010"/>
<path d="M15.73 7.67599C15.6614 7.60712 15.5799 7.55246 15.4902 7.51517C15.4004 7.47788 15.3042 7.45868 15.207 7.45868C15.1098 7.45868 15.0136 7.47788 14.9238 7.51517C14.8341 7.55246 14.7526 7.60712 14.684 7.67599L9.77401 12.586C9.71919 12.6406 9.6757 12.7055 9.64602 12.777C9.61634 12.8485 9.60106 12.9251 9.60106 13.0025C9.60106 13.0799 9.61634 13.1565 9.64602 13.228C9.6757 13.2995 9.71919 13.3644 9.77401 13.419L14.684 18.329C14.7519 18.4013 14.8336 18.4592 14.9242 18.4993C15.0149 18.5393 15.1127 18.5608 15.2118 18.5624C15.311 18.5639 15.4094 18.5455 15.5013 18.5083C15.5932 18.4711 15.6766 18.4158 15.7467 18.3457C15.8168 18.2756 15.8721 18.1921 15.9093 18.1003C15.9466 18.0084 15.9649 17.9099 15.9634 17.8108C15.9618 17.7117 15.9404 17.6139 15.9003 17.5232C15.8602 17.4325 15.8023 17.3509 15.73 17.283L11.452 12.999L15.736 8.71599C15.8727 8.57708 15.9489 8.38966 15.9477 8.19475C15.9466 7.99984 15.8683 7.81332 15.73 7.67599Z" fill="#FFFDFA"/>
</g>
<defs>
<clipPath id="clip0_0_1">
<rect width="26" height="26" fill="white" transform="matrix(-1 0 0 1 26 0)"/>
</clipPath>
</defs>
</svg>
